<?xml version="1.0" encoding="UTF-8"?>
<!DOCTYPE svg PUBLIC "-//W3C//DTD SVG 1.1//EN" "http://www.w3.org/Graphics/SVG/1.1/DTD/svg11.dtd">
<svg xmlns="http://www.w3.org/2000/svg" version="1.1" width="410px" height="410px" style="shape-rendering:geometricPrecision; text-rendering:geometricPrecision; image-rendering:optimizeQuality; fill-rule:evenodd; clip-rule:evenodd" xmlns:xlink="http://www.w3.org/1999/xlink">
<g><path style="opacity:0.004" fill="#fefffe" d="M 340.5,11.5 C 341.833,12.1667 341.833,12.1667 340.5,11.5 Z"/></g>
<g><path style="opacity:0.004" fill="#fefffe" d="M 272.5,24.5 C 273.833,25.1667 273.833,25.1667 272.5,24.5 Z"/></g>
<g><path style="opacity:0.004" fill="#fefffe" d="M 373.5,24.5 C 374.833,25.1667 374.833,25.1667 373.5,24.5 Z"/></g>
<g><path style="opacity:0.004" fill="#fefffe" d="M 74.5,51.5 C 75.8333,52.1667 75.8333,52.1667 74.5,51.5 Z"/></g>
<g><path style="opacity:0.004" fill="#fefffe" d="M 244.5,59.5 C 245.833,60.1667 245.833,60.1667 244.5,59.5 Z"/></g>
<g><path style="opacity:0.004" fill="#fefffe" d="M 167.5,63.5 C 168.833,64.1667 168.833,64.1667 167.5,63.5 Z"/></g>
<g><path style="opacity:0.004" fill="#fefffe" d="M 103.5,74.5 C 104.833,75.1667 104.833,75.1667 103.5,74.5 Z"/></g>
<g><path style="opacity:0.004" fill="#fefffe" d="M 127.5,74.5 C 128.833,75.1667 128.833,75.1667 127.5,74.5 Z"/></g>
<g><path style="opacity:0.004" fill="#fefffe" d="M 335.5,90.5 C 336.833,91.1667 336.833,91.1667 335.5,90.5 Z"/></g>
<g><path style="opacity:0.004" fill="#fefffe" d="M 203.5,118.5 C 204.833,119.167 204.833,119.167 203.5,118.5 Z"/></g>
<g><path style="opacity:0.004" fill="#fefffe" d="M 236.5,120.5 C 237.833,121.167 237.833,121.167 236.5,120.5 Z"/></g>
<g><path style="opacity:0.004" fill="#fefffe" d="M 288.5,124.5 C 289.833,125.167 289.833,125.167 288.5,124.5 Z"/></g>
<g><path style="opacity:1" fill="#5dbcea" d="M 216.5,124.5 C 216.158,125.338 215.492,125.672 214.5,125.5C 206.167,125.5 197.833,125.5 189.5,125.5C 189.5,127.833 189.5,130.167 189.5,132.5C 194.167,132.5 198.833,132.5 203.5,132.5C 210.687,132.175 217.687,132.509 224.5,133.5C 211.167,133.5 197.833,133.5 184.5,133.5C 184.5,137.5 184.5,141.5 184.5,145.5C 181.167,145.5 177.833,145.5 174.5,145.5C 175.029,140.178 175.529,134.844 176,129.5C 176.637,127.697 177.803,126.364 179.5,125.5C 191.783,124.52 204.116,124.187 216.5,124.5 Z"/></g>
<g><path style="opacity:1" fill="#0f83d7" d="M 214.5,125.5 C 210.664,127.584 206.997,129.917 203.5,132.5C 198.833,132.5 194.167,132.5 189.5,132.5C 189.5,130.167 189.5,127.833 189.5,125.5C 197.833,125.5 206.167,125.5 214.5,125.5 Z"/></g>
<g><path style="opacity:1" fill="#3149b9" d="M 216.5,124.5 C 220.514,124.334 224.514,124.501 228.5,125C 231.708,126.437 233.375,128.937 233.5,132.5C 230.943,134.032 228.443,135.699 226,137.5C 225.809,139.708 225.309,141.708 224.5,143.5C 224.5,140.167 224.5,136.833 224.5,133.5C 217.687,132.509 210.687,132.175 203.5,132.5C 206.997,129.917 210.664,127.584 214.5,125.5C 215.492,125.672 216.158,125.338 216.5,124.5 Z"/></g>
<g><path style="opacity:0.004" fill="#fefffe" d="M 336.5,127.5 C 337.833,128.167 337.833,128.167 336.5,127.5 Z"/></g>
<g><path style="opacity:1" fill="#8123a6" d="M 233.5,132.5 C 233.5,136.833 233.5,141.167 233.5,145.5C 229.988,146.055 226.988,145.388 224.5,143.5C 225.309,141.708 225.809,139.708 226,137.5C 228.443,135.699 230.943,134.032 233.5,132.5 Z"/></g>
<g><path style="opacity:0.004" fill="#fefffe" d="M 357.5,135.5 C 358.833,136.167 358.833,136.167 357.5,135.5 Z"/></g>
<g><path style="opacity:1" fill="#0c9ee4" d="M 183.5,148.5 C 187.5,148.5 191.5,148.5 195.5,148.5C 197.824,157.144 200.158,165.811 202.5,174.5C 201.844,176.453 201.511,178.453 201.5,180.5C 201.167,180.5 200.833,180.5 200.5,180.5C 200.5,179.167 200.5,177.833 200.5,176.5C 192.289,174.948 184.289,172.781 176.5,170C 175.748,169.329 175.414,168.496 175.5,167.5C 178.449,161.271 181.115,154.938 183.5,148.5 Z"/></g>
<g><path style="opacity:1" fill="#fcbc1c" d="M 247.5,148.5 C 249.167,148.5 250.833,148.5 252.5,148.5C 252.5,152.167 252.5,155.833 252.5,159.5C 250.269,156.164 248.603,152.497 247.5,148.5 Z"/></g>
<g><path style="opacity:1" fill="#fac525" d="M 275.5,148.5 C 273.26,154.65 270.26,160.316 266.5,165.5C 266.5,159.833 266.5,154.167 266.5,148.5C 269.5,148.5 272.5,148.5 275.5,148.5 Z"/></g>
<g><path style="opacity:1" fill="#9c28ae" d="M 195.5,148.5 C 209.833,148.5 224.167,148.5 238.5,148.5C 229.03,157.458 219.03,165.958 208.5,174C 207.313,175.019 206.313,176.186 205.5,177.5C 205.957,178.298 206.624,178.631 207.5,178.5C 217.527,188.194 227.527,197.861 237.5,207.5C 225.5,198.5 213.5,189.5 201.5,180.5C 201.511,178.453 201.844,176.453 202.5,174.5C 200.158,165.811 197.824,157.144 195.5,148.5 Z"/></g>
<g><path style="opacity:1" fill="#78e74b" d="M 183.5,148.5 C 181.115,154.938 178.449,161.271 175.5,167.5C 174.833,167.5 174.5,167.833 174.5,168.5C 172.143,168.663 169.81,168.497 167.5,168C 163.964,164.296 160.298,160.796 156.5,157.5C 156.5,154.5 156.5,151.5 156.5,148.5C 165.5,148.5 174.5,148.5 183.5,148.5 Z"/></g>
<g><path style="opacity:1" fill="#fa1e9e" d="M 238.5,148.5 C 241.5,148.5 244.5,148.5 247.5,148.5C 248.603,152.497 250.269,156.164 252.5,159.5C 252.5,165.5 252.5,171.5 252.5,177.5C 237.499,177.804 222.499,178.138 207.5,178.5C 206.624,178.631 205.957,178.298 205.5,177.5C 206.313,176.186 207.313,175.019 208.5,174C 219.03,165.958 229.03,157.458 238.5,148.5 Z"/></g>
<g><path style="opacity:1" fill="#21d465" d="M 142.5,178.5 C 134.135,180.62 125.801,182.954 117.5,185.5C 117.334,176.827 117.5,168.16 118,159.5C 119.093,154.076 122.259,150.576 127.5,149C 132.489,148.501 137.489,148.334 142.5,148.5C 143.072,157.974 143.072,167.974 142.5,178.5 Z"/></g>
<g><path style="opacity:0.004" fill="#fefffe" d="M 22.5,158.5 C 23.8333,159.167 23.8333,159.167 22.5,158.5 Z"/></g>
<g><path style="opacity:1" fill="#fce334" d="M 275.5,148.5 C 282.743,147.907 287.91,150.907 291,157.5C 291.5,169.162 291.667,180.829 291.5,192.5C 283.258,187.549 274.925,182.882 266.5,178.5C 266.5,174.167 266.5,169.833 266.5,165.5C 270.26,160.316 273.26,154.65 275.5,148.5 Z"/></g>
<g><path style="opacity:0.004" fill="#fefffe" d="M 313.5,160.5 C 314.833,161.167 314.833,161.167 313.5,160.5 Z"/></g>
<g><path style="opacity:0.004" fill="#fefffe" d="M 41.5,163.5 C 42.8333,164.167 42.8333,164.167 41.5,163.5 Z"/></g>
<g><path style="opacity:1" fill="#23d364" d="M 156.5,157.5 C 160.298,160.796 163.964,164.296 167.5,168C 169.81,168.497 172.143,168.663 174.5,168.5C 174.326,171.763 172.659,173.43 169.5,173.5C 168.181,172.103 166.514,171.437 164.5,171.5C 161.822,172.175 159.156,172.842 156.5,173.5C 156.5,168.167 156.5,162.833 156.5,157.5 Z"/></g>
<g><path style="opacity:1" fill="#08b2e8" d="M 175.5,167.5 C 175.414,168.496 175.748,169.329 176.5,170C 184.289,172.781 192.289,174.948 200.5,176.5C 200.5,177.833 200.5,179.167 200.5,180.5C 191.488,192.538 182.488,204.538 173.5,216.5C 167.653,212.409 161.987,208.076 156.5,203.5C 156.5,201.167 156.5,198.833 156.5,196.5C 161.193,189.115 165.526,181.448 169.5,173.5C 172.659,173.43 174.326,171.763 174.5,168.5C 174.5,167.833 174.833,167.5 175.5,167.5 Z"/></g>
<g><path style="opacity:1" fill="#d41aa3" d="M 252.5,177.5 C 252.5,190.833 252.5,204.167 252.5,217.5C 249.516,217.213 248.183,215.546 248.5,212.5C 246.5,212.5 244.5,212.5 242.5,212.5C 241.027,210.605 239.36,208.939 237.5,207.5C 227.527,197.861 217.527,188.194 207.5,178.5C 222.499,178.138 237.499,177.804 252.5,177.5 Z"/></g>
<g><path style="opacity:1" fill="#079ee3" d="M 169.5,173.5 C 165.526,181.448 161.193,189.115 156.5,196.5C 156.5,188.833 156.5,181.167 156.5,173.5C 159.156,172.842 161.822,172.175 164.5,171.5C 166.514,171.437 168.181,172.103 169.5,173.5 Z"/></g>
<g><path style="opacity:0.004" fill="#fefffe" d="M 91.5,180.5 C 92.8333,181.167 92.8333,181.167 91.5,180.5 Z"/></g>
<g><path style="opacity:1" fill="#1d43b9" d="M 200.5,180.5 C 200.833,180.5 201.167,180.5 201.5,180.5C 213.5,189.5 225.5,198.5 237.5,207.5C 239.36,208.939 241.027,210.605 242.5,212.5C 233.167,214.833 223.833,217.167 214.5,219.5C 203.436,221.913 192.436,224.579 181.5,227.5C 181.167,227.5 180.833,227.5 180.5,227.5C 178.646,223.779 176.313,220.446 173.5,217.5C 173.5,217.167 173.5,216.833 173.5,216.5C 182.488,204.538 191.488,192.538 200.5,180.5 Z"/></g>
<g><path style="opacity:1" fill="#24a1e3" d="M 142.5,178.5 C 143.833,189.833 143.833,201.167 142.5,212.5C 141.262,213.412 139.928,213.579 138.5,213C 132.165,206.518 125.165,201.018 117.5,196.5C 117.5,192.833 117.5,189.167 117.5,185.5C 125.801,182.954 134.135,180.62 142.5,178.5 Z"/></g>
<g><path style="opacity:1" fill="#fa249e" d="M 266.5,178.5 C 274.925,182.882 283.258,187.549 291.5,192.5C 291.5,194.167 291.5,195.833 291.5,197.5C 283.438,199.965 275.438,202.632 267.5,205.5C 266.566,204.432 266.232,203.099 266.5,201.5C 266.5,193.833 266.5,186.167 266.5,178.5 Z"/></g>
<g><path style="opacity:1" fill="#9f2baf" d="M 291.5,197.5 C 291.5,201.167 291.5,204.833 291.5,208.5C 287.928,214.641 284.595,220.974 281.5,227.5C 281.167,227.5 280.833,227.5 280.5,227.5C 276.094,226.467 271.76,225.134 267.5,223.5C 267.5,217.5 267.5,211.5 267.5,205.5C 275.438,202.632 283.438,199.965 291.5,197.5 Z"/></g>
<g><path style="opacity:1" fill="#22d467" d="M 117.5,196.5 C 125.165,201.018 132.165,206.518 138.5,213C 139.928,213.579 141.262,213.412 142.5,212.5C 142.5,214.167 142.5,215.833 142.5,217.5C 141.041,217.433 139.708,217.766 138.5,218.5C 131.665,216.742 124.665,216.075 117.5,216.5C 117.5,209.833 117.5,203.167 117.5,196.5 Z"/></g>
<g><path style="opacity:1" fill="#1ed467" d="M 156.5,203.5 C 161.987,208.076 167.653,212.409 173.5,216.5C 173.5,216.833 173.5,217.167 173.5,217.5C 172.833,217.5 172.5,217.833 172.5,218.5C 167.167,218.5 161.833,218.5 156.5,218.5C 156.5,213.5 156.5,208.5 156.5,203.5 Z"/></g>
<g><path style="opacity:1" fill="#7de64d" d="M 117.5,216.5 C 124.665,216.075 131.665,216.742 138.5,218.5C 132.111,225.891 125.111,232.557 117.5,238.5C 117.5,231.167 117.5,223.833 117.5,216.5 Z"/></g>
<g><path style="opacity:1" fill="#5130ad" d="M 242.5,212.5 C 244.5,212.5 246.5,212.5 248.5,212.5C 248.183,215.546 249.516,217.213 252.5,217.5C 252.5,223.167 252.5,228.833 252.5,234.5C 252.665,237.518 252.498,240.518 252,243.5C 249.657,234.971 246.824,226.638 243.5,218.5C 238.458,224.208 233.791,230.208 229.5,236.5C 226.362,230.919 222.695,225.586 218.5,220.5C 217.311,219.571 215.978,219.238 214.5,219.5C 223.833,217.167 233.167,214.833 242.5,212.5 Z"/></g>
<g><path style="opacity:1" fill="#f6e32d" d="M 156.5,218.5 C 161.833,218.5 167.167,218.5 172.5,218.5C 172.5,219.5 172.5,220.5 172.5,221.5C 167.167,227.833 161.833,234.167 156.5,240.5C 156.5,233.167 156.5,225.833 156.5,218.5 Z"/></g>
<g><path style="opacity:1" fill="#fbe63d" d="M 142.5,217.5 C 144.107,230.698 143.774,243.698 141.5,256.5C 140.833,256.5 140.5,256.833 140.5,257.5C 132.968,252.902 125.302,248.568 117.5,244.5C 117.5,242.5 117.5,240.5 117.5,238.5C 125.111,232.557 132.111,225.891 138.5,218.5C 139.708,217.766 141.041,217.433 142.5,217.5 Z"/></g>
<g><path style="opacity:1" fill="#7424a7" d="M 214.5,219.5 C 215.978,219.238 217.311,219.571 218.5,220.5C 222.695,225.586 226.362,230.919 229.5,236.5C 228.833,237.167 228.167,237.833 227.5,238.5C 221.167,247.167 214.833,255.833 208.5,264.5C 198.778,252.737 189.778,240.403 181.5,227.5C 192.436,224.579 203.436,221.913 214.5,219.5 Z"/></g>
<g><path style="opacity:0.998" fill="#10aae8" d="M 291.5,208.5 C 291.5,215.5 291.5,222.5 291.5,229.5C 287.968,229.69 284.635,229.023 281.5,227.5C 284.595,220.974 287.928,214.641 291.5,208.5 Z"/></g>
<g><path style="opacity:1" fill="#8d25a6" d="M 173.5,217.5 C 176.313,220.446 178.646,223.779 180.5,227.5C 178.139,227.674 175.806,228.007 173.5,228.5C 173.702,226.05 173.369,223.717 172.5,221.5C 172.5,220.5 172.5,219.5 172.5,218.5C 172.5,217.833 172.833,217.5 173.5,217.5 Z"/></g>
<g><path style="opacity:1" fill="#1e42b7" d="M 267.5,223.5 C 271.76,225.134 276.094,226.467 280.5,227.5C 280.5,227.833 280.5,228.167 280.5,228.5C 276.735,239.808 272.402,250.808 267.5,261.5C 267.5,260.5 267.5,259.5 267.5,258.5C 267.5,246.833 267.5,235.167 267.5,223.5 Z"/></g>
<g><path style="opacity:1" fill="#a034b1" d="M 252.5,234.5 C 253.833,247.5 253.833,260.5 252.5,273.5C 252.808,271.076 252.474,268.743 251.5,266.5C 245.085,268.964 238.752,271.297 232.5,273.5C 228.5,273.5 224.5,273.5 220.5,273.5C 224.293,261.867 226.627,250.201 227.5,238.5C 228.167,237.833 228.833,237.167 229.5,236.5C 233.791,230.208 238.458,224.208 243.5,218.5C 246.824,226.638 249.657,234.971 252,243.5C 252.498,240.518 252.665,237.518 252.5,234.5 Z"/></g>
<g><path style="opacity:0.531" fill="#9f9ad1" d="M 266.5,201.5 C 266.232,203.099 266.566,204.432 267.5,205.5C 267.5,211.5 267.5,217.5 267.5,223.5C 267.5,235.167 267.5,246.833 267.5,258.5C 265.726,239.515 265.393,220.515 266.5,201.5 Z"/></g>
<g><path style="opacity:1" fill="#22d464" d="M 280.5,228.5 C 280.5,228.167 280.5,227.833 280.5,227.5C 280.833,227.5 281.167,227.5 281.5,227.5C 284.635,229.023 287.968,229.69 291.5,229.5C 291.5,233.833 291.5,238.167 291.5,242.5C 287.853,237.903 284.186,233.236 280.5,228.5 Z"/></g>
<g><path style="opacity:1" fill="#fa209e" d="M 172.5,221.5 C 173.369,223.717 173.702,226.05 173.5,228.5C 171.293,243.445 169.626,258.445 168.5,273.5C 164.452,273.605 160.452,273.272 156.5,272.5C 156.5,261.833 156.5,251.167 156.5,240.5C 161.833,234.167 167.167,227.833 172.5,221.5 Z"/></g>
<g><path style="opacity:1" fill="#fbd22d" d="M 117.5,244.5 C 125.302,248.568 132.968,252.902 140.5,257.5C 138.871,259.196 139.204,260.196 141.5,260.5C 142.563,264.639 143.23,268.972 143.5,273.5C 121.356,276.296 112.689,266.63 117.5,244.5 Z"/></g>
<g><path style="opacity:1" fill="#78e74c" d="M 280.5,228.5 C 284.186,233.236 287.853,237.903 291.5,242.5C 291.821,250.561 291.321,258.561 290,266.5C 287.851,270.156 284.684,272.156 280.5,272.5C 273.687,271.985 269.353,268.652 267.5,262.5C 267.5,262.167 267.5,261.833 267.5,261.5C 272.402,250.808 276.735,239.808 280.5,228.5 Z"/></g>
<g><path style="opacity:0.271" fill="#fb3d8f" d="M 141.5,256.5 C 141.5,257.833 141.5,259.167 141.5,260.5C 139.204,260.196 138.871,259.196 140.5,257.5C 140.5,256.833 140.833,256.5 141.5,256.5 Z"/></g>
<g><path style="opacity:1" fill="#bc20a6" d="M 227.5,238.5 C 226.627,250.201 224.293,261.867 220.5,273.5C 214.833,273.5 209.167,273.5 203.5,273.5C 205.959,270.913 207.626,267.913 208.5,264.5C 214.833,255.833 221.167,247.167 227.5,238.5 Z"/></g>
<g><path style="opacity:1" fill="#dc19a3" d="M 180.5,227.5 C 180.833,227.5 181.167,227.5 181.5,227.5C 189.778,240.403 198.778,252.737 208.5,264.5C 207.626,267.913 205.959,270.913 203.5,273.5C 191.833,273.5 180.167,273.5 168.5,273.5C 169.626,258.445 171.293,243.445 173.5,228.5C 175.806,228.007 178.139,227.674 180.5,227.5 Z"/></g>
<g><path style="opacity:1" fill="#5332b0" d="M 252.5,273.5 C 245.833,273.5 239.167,273.5 232.5,273.5C 238.752,271.297 245.085,268.964 251.5,266.5C 252.474,268.743 252.808,271.076 252.5,273.5 Z"/></g>
<g><path style="opacity:1" fill="#47dc77" d="M 267.5,262.5 C 269.353,268.652 273.687,271.985 280.5,272.5C 276.02,273.521 271.353,274.187 266.5,274.5C 266.183,270.298 266.517,266.298 267.5,262.5 Z"/></g>
<g><path style="opacity:0.004" fill="#fefffe" d="M 305.5,272.5 C 306.833,273.167 306.833,273.167 305.5,272.5 Z"/></g>
<g><path style="opacity:0.004" fill="#fefffe" d="M 215.5,283.5 C 216.833,284.167 216.833,284.167 215.5,283.5 Z"/></g>
<g><path style="opacity:0.004" fill="#fefffe" d="M 296.5,284.5 C 297.833,285.167 297.833,285.167 296.5,284.5 Z"/></g>
<g><path style="opacity:0.004" fill="#fefffe" d="M 361.5,284.5 C 362.833,285.167 362.833,285.167 361.5,284.5 Z"/></g>
<g><path style="opacity:0.004" fill="#fefffe" d="M 404.5,285.5 C 405.833,286.167 405.833,286.167 404.5,285.5 Z"/></g>
<g><path style="opacity:0.004" fill="#fefffe" d="M 312.5,346.5 C 313.833,347.167 313.833,347.167 312.5,346.5 Z"/></g>
<g><path style="opacity:0.004" fill="#fefffe" d="M 137.5,352.5 C 138.833,353.167 138.833,353.167 137.5,352.5 Z"/></g>
<g><path style="opacity:0.004" fill="#fefffe" d="M 183.5,361.5 C 184.833,362.167 184.833,362.167 183.5,361.5 Z"/></g>
<g><path style="opacity:0.004" fill="#fefffe" d="M 59.5,364.5 C 60.8333,365.167 60.8333,365.167 59.5,364.5 Z"/></g>
<g><path style="opacity:0.004" fill="#fefffe" d="M 272.5,367.5 C 273.833,368.167 273.833,368.167 272.5,367.5 Z"/></g>
<g><path style="opacity:0.004" fill="#fefffe" d="M 82.5,379.5 C 83.8333,380.167 83.8333,380.167 82.5,379.5 Z"/></g>
<g><path style="opacity:0.004" fill="#fefffe" d="M 196.5,404.5 C 197.833,405.167 197.833,405.167 196.5,404.5 Z"/></g>
<g><path style="opacity:0.004" fill="#fefffe" d="M 308.5,407.5 C 309.833,408.167 309.833,408.167 308.5,407.5 Z"/></g>
</svg>
